<mxfile host="app.diagrams.net" modified="2023-03-20T08:56:07.924Z" agent="5.0 (Windows NT 10.0; Win64; x64) AppleWebKit/537.36 (KHTML, like Gecko) Chrome/111.0.0.0 Safari/537.36 Edg/111.0.1661.44" etag="poH5jNLRQFAdUt27k8x0" version="21.0.8" type="github">
  <diagram name="第 1 页" id="CwK50u4rfhOB_0AP2S2_">
    <mxGraphModel dx="1377" dy="796" grid="1" gridSize="10" guides="1" tooltips="1" connect="1" arrows="1" fold="1" page="1" pageScale="1" pageWidth="827" pageHeight="1169" math="0" shadow="0">
      <root>
        <mxCell id="0" />
        <mxCell id="1" parent="0" />
        <mxCell id="hd5zKVOto32QuVnT4AR--7" value="" style="edgeStyle=orthogonalEdgeStyle;rounded=0;orthogonalLoop=1;jettySize=auto;html=1;" edge="1" parent="1" source="hd5zKVOto32QuVnT4AR--1">
          <mxGeometry relative="1" as="geometry">
            <mxPoint x="200" y="365" as="targetPoint" />
          </mxGeometry>
        </mxCell>
        <mxCell id="hd5zKVOto32QuVnT4AR--1" value="&lt;div style=&quot;&quot;&gt;&lt;b style=&quot;background-color: initial;&quot;&gt;.Lua&lt;/b&gt;&lt;/div&gt;" style="shape=note2;boundedLbl=1;whiteSpace=wrap;html=1;size=25;verticalAlign=top;align=center;" vertex="1" parent="1">
          <mxGeometry x="70" y="330" width="70" height="70" as="geometry" />
        </mxCell>
        <mxCell id="hd5zKVOto32QuVnT4AR--10" value="" style="fontStyle=0;labelPosition=right;verticalLabelPosition=middle;align=left;verticalAlign=middle;spacingLeft=2;html=1;points=[[0,0.5],[1,0.5]];fillColor=strokeColor;" vertex="1" parent="1">
          <mxGeometry x="670" y="325" width="90" height="90" as="geometry" />
        </mxCell>
        <mxCell id="hd5zKVOto32QuVnT4AR--11" value="&lt;font color=&quot;#ffffff&quot;&gt;&amp;gt;_&lt;/font&gt;" style="text;html=1;fontSize=24;fontStyle=1;verticalAlign=middle;align=center;" vertex="1" parent="1">
          <mxGeometry x="665" y="345" width="100" height="40" as="geometry" />
        </mxCell>
        <mxCell id="hd5zKVOto32QuVnT4AR--12" value="" style="edgeStyle=orthogonalEdgeStyle;rounded=0;orthogonalLoop=1;jettySize=auto;html=1;" edge="1" parent="1" target="hd5zKVOto32QuVnT4AR--11">
          <mxGeometry relative="1" as="geometry">
            <mxPoint x="594" y="365" as="sourcePoint" />
          </mxGeometry>
        </mxCell>
        <mxCell id="hd5zKVOto32QuVnT4AR--16" value="" style="edgeStyle=orthogonalEdgeStyle;rounded=0;orthogonalLoop=1;jettySize=auto;html=1;" edge="1" parent="1" source="hd5zKVOto32QuVnT4AR--13" target="hd5zKVOto32QuVnT4AR--14">
          <mxGeometry relative="1" as="geometry" />
        </mxCell>
        <mxCell id="hd5zKVOto32QuVnT4AR--13" value="&lt;p style=&quot;line-height: 30%;&quot;&gt;Luac&lt;/p&gt;" style="html=1;align=center;verticalAlign=top;rounded=1;absoluteArcSize=1;arcSize=10;dashed=0;whiteSpace=wrap;" vertex="1" parent="1">
          <mxGeometry x="200" y="345" width="114" height="40" as="geometry" />
        </mxCell>
        <mxCell id="hd5zKVOto32QuVnT4AR--17" value="" style="edgeStyle=orthogonalEdgeStyle;rounded=0;orthogonalLoop=1;jettySize=auto;html=1;" edge="1" parent="1" source="hd5zKVOto32QuVnT4AR--14" target="hd5zKVOto32QuVnT4AR--15">
          <mxGeometry relative="1" as="geometry" />
        </mxCell>
        <mxCell id="hd5zKVOto32QuVnT4AR--14" value="&lt;div style=&quot;&quot;&gt;&lt;b style=&quot;background-color: initial;&quot;&gt;.out&lt;/b&gt;&lt;/div&gt;" style="shape=note2;boundedLbl=1;whiteSpace=wrap;html=1;size=25;verticalAlign=top;align=center;" vertex="1" parent="1">
          <mxGeometry x="370" y="330" width="70" height="70" as="geometry" />
        </mxCell>
        <mxCell id="hd5zKVOto32QuVnT4AR--15" value="&lt;p style=&quot;line-height: 30%;&quot;&gt;lua&lt;/p&gt;" style="html=1;align=center;verticalAlign=top;rounded=1;absoluteArcSize=1;arcSize=10;dashed=0;whiteSpace=wrap;" vertex="1" parent="1">
          <mxGeometry x="490" y="345" width="114" height="40" as="geometry" />
        </mxCell>
      </root>
    </mxGraphModel>
  </diagram>
</mxfile>
